# AST/ASF file generated using VICON BodyLanguage
# -----------------------------------------------
:version 1.10
:name VICON
:units
  mass 1.0
  length 0.45
  angle deg
:documentation
   .ast/.asf automatically generated from VICON data using
   VICON BodyBuilder and BodyLanguage model FoxedUp or BRILLIANT.MOD
:root
   order TX TY TZ RX RY RZ
   axis XYZ
   position 0 0 0  
   orientation 0 0 0 
:bonedata
  begin
     id 1 
     name lhipjoint
     direction 0.624716 -0.669793 0.401383 
     length 2.38238 
     axis 0 0 0  XYZ
  end
  begin
     id 2 
     name lfemur
     direction 0.34202 -0.939693 0  
     length 6.4574  
     axis 0 0 20  XYZ
    dof rx ry rz
    limits (-160.0 20.0)
           (-70.0 70.0)
           (-60.0 70.0)
  end
  begin
     id 3 
     name ltibia
     direction 0.34202 -0.939693 0   
     length 7.68739   
     axis 0 0 20   XYZ
    dof rx
    limits (-10.0 170.0)
  end
  begin
     id 4 
     name lfoot
     direction 0.0681309 -0.187188 0.979959   
     length 2.46615   
     axis -90 7.62852e-016 20   XYZ
    dof rx rz
    limits (-45.0 90.0)
           (-70.0 20.0)
  end
  begin
     id 5 
     name ltoes
     direction 1.53566e-011 -4.21819e-011 1   
     length 1.2376   
     axis -90 7.62852e-016 20   XYZ
    dof rx
    limits (-90.0 20.0)
  end
  begin
     id 6 
     name rhipjoint
     direction -0.644473 -0.655875 0.393043   
     length 2.43293  
     axis 0 0 0  XYZ 
  end
  begin
     id 7 
     name rfemur
     direction -0.34202 -0.939693 0   
     length 6.7025   
     axis 0 0 -20   XYZ
    dof rx ry rz
    limits (-160.0 20.0)
           (-70.0 70.0)
           (-70.0 60.0)
  end
  begin
     id 8 
     name rtibia
     direction -0.34202 -0.939693 0   
     length 7.80547   
     axis 0 0 -20   XYZ
    dof rx
    limits (-10.0 170.0)
 end
 begin
     id 9 
     name rfoot
     direction -0.0756734 -0.207911 0.975216   
     length 2.40315  
     axis -90 -7.62852e-016 -20   XYZ
    dof rx rz
    limits (-45.0 90.0)
           (-20.0 70.0)
  end
  begin
     id 10 
     name rtoes
     direction -1.5353e-011 -4.21879e-011 1   
     length 1.20477   
     axis -90 -7.62852e-016 -20   XYZ
    dof rx
    limits (-90.0 20.0)
  end
  begin
     id 11 
     name lowerback
     direction 0.0160353 0.987463 -0.157037   
     length 2.18572   
     axis 0 0 0   XYZ
    dof rx ry rz
    limits (-20.0 45.0)
           (-30.0 30.0)
           (-30.0 30.0)
  end
  begin
     id 12 
     name upperback
     direction -0.00499661 0.999756 0.0215076   
     length 2.18016   
     axis 0 0 0   XYZ
    dof rx ry rz
    limits (-20.0 45.0)
           (-30.0 30.0)
           (-30.0 30.0)
  end
  begin
     id 13 
     name thorax
     direction -0.00921346 0.995333 0.0960619   
     length 2.24923   
     axis 0 0 0   XYZ
    dof rx ry rz
    limits (-20.0 45.0)
           (-30.0 30.0)
           (-30.0 30.0)
  end
  begin
     id 14 
     name lowerneck
     direction 0.0274184 0.991181 0.12965   
     length 1.70911   
     axis 0 0 0   XYZ
    dof rx ry rz
    limits (-20.0 45.0)
           (-30.0 30.0)
           (-30.0 30.0)
  end
  begin
     id 15 
     name upperneck
     direction 0.0015627 0.999959 -0.00893559   
     length 1.69312   
     axis 0 0 0   XYZ
    dof rx ry rz
    limits (-20.0 45.0)
           (-30.0 30.0)
           (-30.0 30.0)
  end
  begin
     id 16
     name head
     direction -0.00230242 0.999856 -0.0168327  
     length 1.80241  
     axis 0 0 0   XYZ
    dof rx ry rz
    limits (-20.0 45.0)
           (-30.0 30.0)
           (-30.0 30.0)
  end
  begin
     id 17 
     name lclavicle
     direction 0.955523 0.290741 -0.0494489  
     length 3.84275  
     axis 0 0 0   XYZ
    dof ry rz
    limits (-20.0 10.0)
           (0.0 20.0)
  end
  begin
     id 18 
     name lhumerus
     direction 1 -4.48967e-011 -3.18382e-028   
     length 5.17714   
     axis 180 -30 -90   XYZ
    dof rx ry rz
    limits (-60.0 90.0)
           (-90.0 90.0)
           (-90.0 90.0)
  end
  begin
     id 19
     name lradius
     direction 1 -4.48968e-011 -2.22911e-027   
     length 3.43679   
     axis 180 -30 -90   XYZ
    dof rx
    limits (-10.0 170.0)
  end
  begin
     id 20
     name lwrist
     direction 1 -4.48951e-011 -6.32245e-027   
     length 1.7184   
     axis 3.57107e-015 90 90   XYZ
    dof ry
    limits (-180.0 0.0)
 end
  begin
     id 21 
     name lhand
     direction 1 -4.48924e-011 -1.26431e-026   
     length 0.573117   
     axis 8.06912e-015 90 90   XYZ
    dof rx rz
    limits (-90.0 90.0)
           (-45.0 45.0)
  end
  begin
     id 22 
     name lfingers
     direction 1 -4.49001e-011 -2.52965e-026   
     length 0.462062   
     axis 1.61381e-014 90 90   XYZ
    dof rx
    limits (0.0 90.0)
  end
  begin
     id 23
     name lthumb
     direction 0.707107 -6.35008e-011 0.707107   
     length 0.663431   
     axis -90 45 -1.62303e-014   XYZ
    dof rx rz
    limits (-45.0 45.0)
           (-45.0 45.0)
  end
  begin
     id 24 
     name rclavicle
     direction -0.963917 0.256881 -0.0698287   
     length 3.73057  
     axis 0 0 0   XYZ 
    dof ry rz
    limits (-10.0 20.0)
           (-20.0 0.0)
  end
  begin
     id 25 
     name rhumerus
     direction -1 -4.48962e-011 -2.73982e-027  
     length 5.23908   
     axis 180 30 90   XYZ
    dof rx ry rz
    limits (-90.0 60.0)
           (-90.0 90.0)
           (-90.0 90.0)
  end
  begin
     id 26 
     name rradius
     direction -1 -4.48968e-011 -4.33218e-027   
     length 3.46485   
     axis 180 30 90   XYZ
    dof rx
    limits (-10.0 170.0)
  end
  begin
     id 27 
     name rwrist
     direction -1 -4.48989e-011 -6.32372e-027   
     length 1.73243   
     axis 3.57107e-015 -90 -90   XYZ
    dof ry
    limits (-180.0 0.0)
  end
  begin
     id 28
     name rhand
     direction -1 -4.48948e-011 -1.26448e-026   
     length 0.608752   
     axis 8.06912e-015 -90 -90   XYZ
    dof rx rz
    limits (-90.0 90.0)
           (-45.0 45.0)
  end
  begin
     id 29
     name rfingers
     direction -1 -4.48962e-011 -2.52913e-026   
     length 0.490792   
     axis 1.61381e-014 -90 -90   XYZ
    dof rx
    limits (0.0 90.0)
  end
  begin
     id 30
     name rthumb
     direction -0.707107 -6.34878e-011 0.707107   
     length 0.704682   
     axis -90 -45 1.62303e-014   XYZ
    dof rx rz
    limits (-45.0 45.0)
           (-45.0 45.0)
  end
:hierarchy
  begin
    root lhipjoint rhipjoint lowerback
    lhipjoint lfemur
    lfemur ltibia
    ltibia lfoot
    lfoot ltoes
    rhipjoint rfemur
    rfemur rtibia
    rtibia rfoot
    rfoot rtoes
    lowerback upperback
    upperback thorax
    thorax lowerneck lclavicle rclavicle
    lowerneck upperneck
    upperneck head
    lclavicle lhumerus
    lhumerus lradius
    lradius lwrist
    lwrist lhand lthumb
    lhand lfingers
    rclavicle rhumerus
    rhumerus rradius
    rradius rwrist
    rwrist rhand rthumb
    rhand rfingers
  end

#!OML:ASF G:\JayActor3\Patient Classification 1\Patient 1\Session 6\male.ASF
:FULLY-SPECIFIED
:DEGREES
642
root 25.8021 16.1655 -8.12156 170.117 -52.4297 -174.182
lowerback 4.19468 -0.0760001 8.76568
upperback -3.66157 0.502211 2.35263
thorax -6.16076 -0.138525 -2.48112
lowerneck -3.39507 5.35083 7.61658
upperneck 5.36409 7.08447 -6.20665
head 2.91446 3.50246 -3.1351
rclavicle -2.36554e-014 -8.82604e-014
rhumerus -29.9404 18.7152 -81.9137
rradius 36.1275
rwrist 0.130245
rhand -15.0571 -2.16318
rfingers 7.12502
rthumb 11.1097 -31.8491
lclavicle -2.36554e-014 -8.82604e-014
lhumerus -51.3496 -0.71793 83.7932
lradius 26.2915
lwrist 21.166
lhand -8.23751 8.98198
lfingers 7.12502
lthumb 17.6803 38.1982
rfemur 13.9206 0.262244 28.8577
rtibia 14.9095
rfoot -20.712 -10.9086
rtoes 2.71134
lfemur -28.4318 24.1327 -20.3709
ltibia 31.0883
lfoot -10.275 9.47129
ltoes -13.4466
643
root 25.7351 16.1555 -8.16733 170.089 -52.0353 -174.004
lowerback 4.17225 -0.0570456 8.82187
upperback -3.6752 0.528255 2.37729
thorax -6.1599 -0.129118 -2.48846
lowerneck -3.36625 5.38271 7.60972
upperneck 5.30934 7.12682 -6.18792
head 2.89232 3.52433 -3.12586
rclavicle 1.0138e-014 -1.11319e-014
rhumerus -29.9112 19.1714 -82.2785
rradius 36.0419
rwrist 0.28809
rhand -14.872 -2.16185
rfingers 7.12502
rthumb 11.2882 -31.8381
lclavicle 1.0138e-014 -1.11319e-014
lhumerus -51.6008 -0.47671 83.7159
lradius 25.8411
lwrist 21.0002
lhand -8.09862 8.94965
lfingers 7.12502
lthumb 17.8139 38.1537
rfemur 14.3367 0.296955 28.9557
rtibia 14.4764
rfoot -20.5651 -10.8076
rtoes 2.24534
lfemur -28.2639 23.3974 -20.0682
ltibia 29.9811
lfoot -10.8132 10.3284
ltoes -13.2045
644
root 25.6679 16.1448 -8.2128 170.078 -51.6269 -173.854
lowerback 4.16587 -0.0314879 8.85493
upperback -3.68878 0.563615 2.39552
thorax -6.16705 -0.114333 -2.49066
lowerneck -3.35861 5.4131 7.60958
upperneck 5.26961 7.16584 -6.16793
head 2.87932 3.54442 -3.11715
rclavicle 8.54774e-015 -1.43125e-014
rhumerus -29.9009 19.5947 -82.6405
rradius 35.959
rwrist 0.442428
rhand -14.6986 -2.17487
rfingers 7.12502
rthumb 11.4554 -31.8419
lclavicle 8.54774e-015 -1.43125e-014
lhumerus -51.8326 -0.255686 83.6317
lradius 25.4012
lwrist 20.804
lhand -7.9265 8.89773
lfingers 7.12502
lthumb 17.9796 38.0867
rfemur 14.733 0.333876 29.0351
rtibia 14.0953
rfoot -20.44 -10.7035
rtoes 1.7717
lfemur -28.0524 22.5675 -19.7059
ltibia 28.9574
lfoot -11.4003 11.2889
ltoes -12.909
645
root 25.6002 16.1335 -8.25807 170.088 -51.2117 -173.734
lowerback 4.16886 -0.0029201 8.86122
upperback -3.70104 0.602445 2.40726
thorax -6.17769 -0.0966548 -2.48524
lowerneck -3.37709 5.44164 7.61865
upperneck 5.2475 7.2012 -6.15644
head 2.87788 3.56227 -3.11269
rclavicle 1.0297e-013 -6.20208e-014
rhumerus -29.9006 19.9876 -82.9986
rradius 35.875
rwrist 0.584422
rhand -14.5403 -2.19684
rfingers 7.12502
rthumb 11.6081 -31.8553
lclavicle 1.0297e-013 -6.20208e-014
lhumerus -52.0428 -0.039558 83.5289
lradius 24.9742
lwrist 20.5601
lhand -7.6993 8.8434
lfingers 7.12502
lthumb 18.1981 38.0121
rfemur 15.1017 0.36962 29.0903
rtibia 13.7787
rfoot -20.3453 -10.5836
rtoes 1.31953
lfemur -27.809 21.6752 -19.3058
ltibia 28.0225
lfoot -12.0333 12.3012
ltoes -12.5902
646
root 25.5319 16.1217 -8.30346 170.127 -50.7902 -173.655
lowerback 4.16663 0.0293908 8.83962
upperback -3.70901 0.643692 2.40731
thorax -6.18027 -0.0760401 -2.47697
lowerneck -3.41339 5.4669 7.63754
upperneck 5.23995 7.23125 -6.15115
head 2.88519 3.57725 -3.11206
rclavicle -6.71892e-014 -5.24792e-014
rhumerus -29.9059 20.339 -83.3548
rradius 35.7849
rwrist 0.715136
rhand -14.3752 -2.21148
rfingers 7.12502
rthumb 11.7673 -31.8609
lclavicle -6.71892e-014 -5.24792e-014
lhumerus -52.2278 0.172104 83.4009
lradius 24.5566
lwrist 20.2706
lhand -7.4366 8.78814
lfingers 7.12502
lthumb 18.4509 37.9331
rfemur 15.4407 0.405022 29.1116
rtibia 13.5341
rfoot -20.2846 -10.4322
rtoes 0.914605
lfemur -27.5404 20.7529 -18.8902
ltibia 27.1813
lfoot -12.707 13.318
ltoes -12.2569
647
root 25.463 16.1092 -8.34905 170.179 -50.3658 -173.593
lowerback 4.14737 0.0609192 8.80886
upperback -3.70617 0.680728 2.39711
thorax -6.16181 -0.0559192 -2.47408
lowerneck -3.47248 5.49061 7.66528
upperneck 5.24269 7.25793 -6.15266
head 2.90089 3.59023 -3.11507
rclavicle 3.16068e-014 4.13472e-014
rhumerus -29.9015 20.6457 -83.7088
rradius 35.6863
rwrist 0.832778
rhand -14.189 -2.20409
rfingers 7.12502
rthumb 11.9469 -31.8432
lclavicle 3.16068e-014 4.13472e-014
lhumerus -52.3825 0.387019 83.2364
lradius 24.1573
lwrist 19.9296
lhand -7.1204 8.75041
lfingers 7.12502
lthumb 18.755 37.8663
rfemur 15.7501 0.445177 29.1153
rtibia 13.3595
rfoot -20.2583 -10.2509
rtoes 0.564195
lfemur -27.259 19.8345 -18.4612
ltibia 26.4407
lfoot -13.3924 14.2846
ltoes -11.9714
648
root 25.3934 16.0962 -8.39492 170.236 -49.9397 -173.542
lowerback 4.10626 0.089437 8.77637
upperback -3.69407 0.710526 2.37754
thorax -6.12155 -0.0381852 -2.47938
lowerneck -3.53752 5.51694 7.68647
upperneck 5.25075 7.28749 -6.1419
head 2.91874 3.60477 -3.11228
rclavicle -4.11484e-014 1.27222e-014
rhumerus -29.8909 20.9022 -84.0597
rradius 35.5803
rwrist 0.946885
rhand -14.0035 -2.16969
rfingers 7.12502
rthumb 12.1257 -31.7983
lclavicle -4.11484e-014 1.27222e-014
lhumerus -52.512 0.606676 83.0389
lradius 23.7731
lwrist 19.5673
lhand -6.81552 8.70857
lfingers 7.12502
lthumb 19.0482 37.7958
rfemur 16.034 0.490172 29.1063
rtibia 13.2445
rfoot -20.2424 -10.0583
rtoes 0.168266
lfemur -26.9717 18.9433 -18.0257
ltibia 25.8076
lfoot -14.0614 15.1532
ltoes -11.747
649
root 25.3233 16.0828 -8.44113 170.279 -49.5138 -173.475
lowerback 4.04315 0.111868 8.75825
upperback -3.67365 0.730014 2.35388
thorax -6.06082 -0.0251843 -2.49591
lowerneck -3.59688 5.54713 7.69587
upperneck 5.25648 7.3222 -6.11513
head 2.93364 3.62218 -3.10155
rclavicle -1.37161e-014 5.56597e-014
rhumerus -29.8777 21.1088 -84.4079
rradius 35.471
rwrist 1.05621
rhand -13.8261 -2.11235
rfingers 7.12502
rthumb 12.2967 -31.7308
lclavicle -1.37161e-014 5.56597e-014
lhumerus -52.62 0.83172 82.8103
lradius 23.4071
lwrist 19.1987
lhand -6.5324 8.67491
lfingers 7.12502
lthumb 19.3205 37.7351
rfemur 16.3003 0.548823 29.1071
rtibia 13.1749
rfoot -20.2289 -9.86434
rtoes -0.265965
lfemur -26.6819 18.0785 -17.5686
ltibia 25.2882
lfoot -14.6986 15.8888
ltoes -11.5492
650
root 25.2525 16.0692 -8.48767 170.307 -49.0877 -173.392
lowerback 3.95924 0.127786 8.75577
upperback -3.64651 0.738916 2.32804
thorax -5.98208 -0.0172448 -2.52233
lowerneck -3.6528 5.5831 7.68865
upperneck 5.26306 7.36483 -6.07166
head 2.94699 3.6437 -3.08154
rclavicle -2.37548e-014 8.74653e-015
rhumerus -29.8653 21.2652 -84.7503
rradius 35.362
rwrist 1.15928
rhand -13.6749 -2.04415
rfingers 7.12502
rthumb 12.4425 -31.6538
lclavicle -2.37548e-014 8.74653e-015
lhumerus -52.7024 1.06155 82.5569
lradius 23.055
lwrist 18.8556
lhand -6.22419 8.70433
lfingers 7.12502
lthumb 19.6168 37.7346
rfemur 16.5521 0.623143 29.1185
rtibia 13.1403
rfoot -20.2087 -9.66699
rtoes -0.732032
lfemur -26.3881 17.2282 -17.0887
ltibia 24.8835
lfoot -15.296 16.4854
ltoes -11.3546
651
root 25.1816 16.0555 -8.53444 170.313 -48.6658 -173.277
lowerback 3.86243 0.137462 8.77206
upperback -3.62063 0.739045 2.30515
thorax -5.89829 -0.0143655 -2.55512
lowerneck -3.69419 5.62167 7.67176
upperneck 5.26686 7.41173 -6.01813
head 2.95588 3.66763 -3.05634
rclavicle -2.31584e-014 5.08889e-014
rhumerus -29.8689 21.3708 -85.0848
rradius 35.2588
rwrist 1.25204
rhand -13.5678 -1.97778
rfingers 7.12502
rthumb 12.5459 -31.5811
lclavicle -2.31584e-014 5.08889e-014
lhumerus -52.7693 1.28779 82.289
lradius 22.7155
lwrist 18.5514
lhand -5.9233 8.78538
lfingers 7.12502
lthumb 19.9061 37.7859
rfemur 16.785 0.711092 29.152
rtibia 13.1383
rfoot -20.1794 -9.46999
rtoes -1.22973
lfemur -26.0933 16.3938 -16.5823
ltibia 24.5876
lfoot -15.837 16.9334
ltoes -11.1402
652
root 25.1099 16.0419 -8.58154 170.309 -48.2487 -173.15
lowerback 3.75822 0.144459 8.7949
upperback -3.59553 0.735071 2.2813
thorax -5.81156 -0.0137167 -2.59213
lowerneck -3.7367 5.66018 7.65675
upperneck 5.27779 7.45853 -5.96459
head 2.96747 3.69154 -3.03144
rclavicle -3.32964e-014 -3.97569e-015
rhumerus -29.8929 21.4195 -85.4075
rradius 35.1644
rwrist 1.33011
rhand -13.5015 -1.92378
rfingers 7.12502
rthumb 12.6097 -31.5232
lclavicle -3.32964e-014 -3.97569e-015
lhumerus -52.8161 1.50245 82.0116
lradius 22.3842
lwrist 18.2887
lhand -5.63371 8.90871
lfingers 7.12502
lthumb 20.1844 37.8801
rfemur 16.9996 0.806295 29.1902
rtibia 13.178
rfoot -20.1446 -9.26872
rtoes -1.76286
lfemur -25.7858 15.6003 -16.0727
ltibia 24.3876
lfoot -16.3132 17.2287
ltoes -10.8888
653
root 25.0375 16.0287 -8.62883 170.308 -47.8329 -173.021
lowerback 3.64447 0.15215 8.81785
upperback -3.57224 0.730899 2.25616
thorax -5.72135 -0.0131022 -2.63045
lowerneck -3.78614 5.69717 7.6459
upperneck 5.29456 7.5031 -5.91738
head 2.98276 3.71416 -3.00945
rclavicle -7.7526e-015 1.43125e-014
rhumerus -29.9373 21.4145 -85.7145
rradius 35.0814
rwrist 1.38883
rhand -13.4767 -1.88754
rfingers 7.12502
rthumb 12.6336 -31.4855
lclavicle -7.7526e-015 1.43125e-014
lhumerus -52.8387 1.7001 81.7313
lradius 22.0605
lwrist 18.0708
lhand -5.3528 9.07447
lfingers 7.12502
lthumb 20.4544 38.0171
rfemur 17.1839 0.91766 29.2288
rtibia 13.2687
rfoot -20.1091 -9.06575
rtoes -2.31745
lfemur -25.4698 14.8941 -15.5832
ltibia 24.2672
lfoot -16.7018 17.3693
ltoes -10.6675
654
root 24.9644 16.0159 -8.67628 170.32 -47.4188 -172.904
lowerback 3.52422 0.160197 8.83071
upperback -3.55344 0.72603 2.22903
thorax -5.6323 -0.0125875 -2.66513
lowerneck -3.83518 5.73421 7.63796
upperneck 5.31579 7.54809 -5.87715
head 3.00006 3.73684 -2.99037
rclavicle -3.71727e-014 -1.90833e-014
rhumerus -30.008 21.3689 -86.007
rradius 35.0098
rwrist 1.42442
rhand -13.4762 -1.85981
rfingers 7.12502
rthumb 12.6341 -31.4577
lclavicle -3.71727e-014 -1.90833e-014
lhumerus -52.8397 1.89921 81.4353
lradius 21.735
lwrist 17.8634
lhand -5.11755 9.23123
lfingers 7.12502
lthumb 20.6805 38.1494
rfemur 17.3335 1.04919 29.2597
rtibia 13.4215
rfoot -20.0826 -8.86035
rtoes -2.86742
lfemur -25.1408 14.3098 -15.1348
ltibia 24.2094
lfoot -16.989 17.3641
ltoes -10.4856
